<?xml version="1.0" encoding="UTF-8"?> <svg xmlns="http://www.w3.org/2000/svg" width="538" height="691" viewBox="0 0 538 691" fill="none"> <path d="M403.5 365.874L269 441.53L134.5 365.874V285.94L96.0715 264.591V388.348L269 485.62L441.929 388.348V264.591L403.5 285.94V365.874Z" fill="#4B3584"></path> <path d="M269 0L0 139.481V172.787L269 322.227L499.571 194.136V300.251H538V139.481L269 0ZM461.143 171.525L422.714 192.873L269 278.275L115.286 192.873L76.8571 171.525L50.2225 156.727L269 43.2874L487.777 156.727L461.143 171.525Z" fill="#4B3584"></path> <path d="M45.1253 529.09C53.0832 529.09 59.3039 531.107 63.7872 535.142C68.2705 539.121 70.5122 544.669 70.5122 551.787C70.5122 558.624 68.4667 564.004 64.3756 567.927C60.2846 571.793 54.6244 573.727 47.395 573.727C44.5929 573.727 41.9029 573.419 39.325 572.802C36.7471 572.186 33.945 571.149 30.9188 569.692V588.438H20.1588V553.216C20.1588 545.482 22.3164 539.541 26.6316 535.394C30.9468 531.191 37.1114 529.09 45.1253 529.09ZM45.4616 565.152C49.8889 565.152 53.3354 564.004 55.8013 561.706C58.3231 559.408 59.5841 556.186 59.5841 552.039C59.5841 547.836 58.3231 544.557 55.8013 542.203C53.2794 539.794 49.8048 538.589 45.3775 538.589C40.8381 538.589 37.2795 539.85 34.7016 542.372C32.1797 544.893 30.9188 548.452 30.9188 553.047V560.193C32.9363 561.818 35.1779 563.051 37.6438 563.892C40.1656 564.732 42.7716 565.152 45.4616 565.152Z" fill="#4B3584"></path> <path d="M127.157 582.806C124.523 584.879 121.133 586.476 116.986 587.597C112.839 588.718 108.355 589.278 103.536 589.278C97.8754 589.278 93.0558 588.55 89.0769 587.093C85.154 585.636 82.1837 583.618 80.1662 581.04C78.1487 578.462 77.14 575.492 77.14 572.13C77.14 568.879 78.0367 566.049 79.83 563.639C81.6233 561.23 84.0331 559.464 87.0594 558.343C84.7617 557.111 82.9403 555.401 81.5953 553.216C80.3063 550.974 79.6619 548.48 79.6619 545.734C79.6619 542.596 80.5866 539.766 82.4359 537.244C84.3413 534.666 87.1715 532.62 90.9262 531.107C94.681 529.538 99.3045 528.753 104.797 528.753C108.495 528.753 112.11 529.146 115.641 529.93C119.171 530.715 122.254 531.78 124.887 533.125L121.777 541.783C116.846 539.205 111.325 537.916 105.217 537.916C100.397 537.916 96.7546 538.701 94.2887 540.27C91.879 541.783 90.6741 543.829 90.6741 546.407C90.6741 548.928 91.5707 550.862 93.3641 552.207C95.1574 553.496 97.7913 554.14 101.266 554.14H116.817V563.219H100.677C96.6985 563.219 93.6162 563.92 91.4306 565.321C89.245 566.666 88.1522 568.683 88.1522 571.373C88.1522 574.063 89.4692 576.193 92.1031 577.762C94.7371 579.331 98.716 580.116 104.04 580.116C107.739 580.116 111.325 579.611 114.8 578.602C118.331 577.594 121.273 576.193 123.627 574.399L127.157 582.806Z" fill="#4B3584"></path> <path d="M159.848 528.753C165.116 528.753 169.711 529.79 173.634 531.864C177.557 533.937 180.583 537.02 182.713 541.111C184.898 545.146 185.991 550.049 185.991 555.822V588.438H175.063V573.307H144.464V588.438H133.704V555.822C133.704 550.049 134.769 545.146 136.899 541.111C139.084 537.02 142.138 533.937 146.061 531.864C149.984 529.79 154.58 528.753 159.848 528.753ZM175.063 564.144V554.813C175.063 549.377 173.718 545.286 171.028 542.54C168.338 539.738 164.583 538.337 159.764 538.337C154.944 538.337 151.189 539.738 148.499 542.54C145.809 545.286 144.464 549.377 144.464 554.813V564.144H175.063Z" fill="#4B3584"></path> <path d="M227.109 528.753C232.209 528.753 236.664 529.79 240.475 531.864C244.286 533.881 247.228 536.851 249.301 540.774C251.431 544.697 252.496 549.461 252.496 555.065V588.438H241.483V554.056C241.483 548.9 240.195 545.006 237.617 542.372C235.095 539.682 231.592 538.337 227.109 538.337C222.569 538.337 219.011 539.682 216.433 542.372C213.855 545.006 212.566 548.9 212.566 554.056V588.438H194.745L194.661 579.191H201.638V555.065C201.638 549.461 202.675 544.697 204.748 540.774C206.878 536.795 209.848 533.797 213.659 531.78C217.526 529.762 222.009 528.753 227.109 528.753Z" fill="#4B3584"></path> <path d="M294.52 547.667C298.892 547.667 302.73 548.48 306.037 550.105C309.399 551.731 312.005 554.112 313.855 557.251C315.76 560.333 316.713 564.032 316.713 568.347C316.713 575.016 314.471 580.228 309.988 583.982C305.561 587.681 299.284 589.531 291.158 589.531C283.088 589.531 276.923 587.681 272.664 583.982C268.461 580.228 266.359 574.792 266.359 567.674V529.594H277.119V551.871C283.116 549.069 288.916 547.667 294.52 547.667ZM291.578 580.62C296.005 580.62 299.452 579.555 301.918 577.426C304.44 575.296 305.701 572.382 305.701 568.683C305.701 564.816 304.384 561.79 301.75 559.604C299.116 557.419 295.753 556.326 291.662 556.326C289.252 556.326 286.787 556.746 284.265 557.587C281.743 558.427 279.361 559.66 277.119 561.286V567.338C277.119 571.597 278.38 574.876 280.902 577.173C283.424 579.471 286.983 580.62 291.578 580.62Z" fill="#4B3584"></path> <path d="M380.241 529.594V588.438H369.313V563.219H338.882V588.438H327.954V529.594H338.882V553.888H369.313V529.594H380.241Z" fill="#4B3584"></path> <path d="M422.05 528.753C427.318 528.753 431.914 529.79 435.837 531.864C439.76 533.937 442.786 537.02 444.915 541.111C447.101 545.146 448.194 550.049 448.194 555.822V588.438H437.266V573.307H406.667V588.438H395.907V555.822C395.907 550.049 396.972 545.146 399.101 541.111C401.287 537.02 404.341 533.937 408.264 531.864C412.187 529.79 416.783 528.753 422.05 528.753ZM437.266 564.144V554.813C437.266 549.377 435.921 545.286 433.231 542.54C430.541 539.738 426.786 538.337 421.966 538.337C417.147 538.337 413.392 539.738 410.702 542.54C408.012 545.286 406.667 549.377 406.667 554.813V564.144H437.266Z" fill="#4B3584"></path> <path d="M507.969 529.594V588.438H497.21V572.046H481.49L470.562 588.438H459.045L471.654 570.28C467.563 568.767 464.397 566.385 462.155 563.135C459.97 559.829 458.877 555.85 458.877 551.198C458.877 546.715 459.886 542.848 461.903 539.597C463.921 536.347 466.779 533.881 470.478 532.2C474.176 530.463 478.52 529.594 483.507 529.594H507.969ZM483.844 538.841C479.36 538.841 475.914 539.878 473.504 541.951C471.15 544.025 469.973 547.051 469.973 551.03C469.973 554.897 471.122 557.895 473.42 560.025C475.718 562.098 479.052 563.135 483.423 563.135H497.21V538.841H483.844Z" fill="#4B3584"></path> <path d="M170.879 630.469V689.313H95.3067V630.469H106.067V680.066H127.755V630.469H138.515V680.066H160.119V630.469H170.879Z" fill="#4B3584"></path> <path d="M209.1 664.514H198.172V689.313H187.412V630.469H198.172V655.099H209.437L226.333 630.469H237.934L217.843 658.966L238.69 689.313H226.333L209.1 664.514Z" fill="#4B3584"></path> <path d="M273.18 690.153C267.184 690.153 261.776 688.864 256.956 686.287C252.137 683.653 248.354 680.038 245.608 675.442C242.862 670.791 241.489 665.607 241.489 659.891C241.489 654.175 242.862 649.019 245.608 644.423C248.354 639.772 252.137 636.157 256.956 633.579C261.776 630.945 267.184 629.628 273.18 629.628C279.177 629.628 284.585 630.945 289.404 633.579C294.224 636.157 298.007 639.744 300.753 644.339C303.499 648.935 304.872 654.119 304.872 659.891C304.872 665.663 303.499 670.847 300.753 675.442C298.007 680.038 294.224 683.653 289.404 686.287C284.585 688.864 279.177 690.153 273.18 690.153ZM273.18 680.57C277.103 680.57 280.634 679.702 283.772 677.964C286.911 676.171 289.376 673.705 291.17 670.567C292.963 667.372 293.86 663.814 293.86 659.891C293.86 655.968 292.963 652.437 291.17 649.299C289.376 646.105 286.911 643.639 283.772 641.902C280.634 640.108 277.103 639.212 273.18 639.212C269.257 639.212 265.727 640.108 262.588 641.902C259.45 643.639 256.984 646.105 255.191 649.299C253.398 652.437 252.501 655.968 252.501 659.891C252.501 663.814 253.398 667.372 255.191 670.567C256.984 673.705 259.45 676.171 262.588 677.964C265.727 679.702 269.257 680.57 273.18 680.57Z" fill="#4B3584"></path> <path d="M343.434 629.628C348.533 629.628 352.989 630.665 356.8 632.739C360.61 634.756 363.553 637.726 365.626 641.649C367.756 645.572 368.82 650.336 368.82 655.94V689.313H357.808V654.931C357.808 649.775 356.519 645.881 353.941 643.247C351.42 640.557 347.917 639.212 343.434 639.212C338.894 639.212 335.336 640.557 332.758 643.247C330.18 645.881 328.891 649.775 328.891 654.931V689.313H311.07L310.985 680.066H317.963V655.94C317.963 650.336 318.999 645.572 321.073 641.649C323.203 637.67 326.173 634.672 329.984 632.655C333.85 630.637 338.334 629.628 343.434 629.628Z" fill="#4B3584"></path> <path d="M409.08 629.628C414.348 629.628 418.943 630.665 422.866 632.739C426.789 634.812 429.815 637.895 431.945 641.986C434.13 646.021 435.223 650.924 435.223 656.697V689.313H424.295V674.182H393.696V689.313H382.936V656.697C382.936 650.924 384.001 646.021 386.131 641.986C388.316 637.895 391.371 634.812 395.294 632.739C399.216 630.665 403.812 629.628 409.08 629.628ZM424.295 665.019V655.688C424.295 650.252 422.95 646.161 420.26 643.415C417.57 640.613 413.815 639.212 408.996 639.212C404.176 639.212 400.421 640.613 397.731 643.415C395.041 646.161 393.696 650.252 393.696 655.688V665.019H424.295Z" fill="#4B3584"></path> </svg> 